# xmcd
#
# Track frame offsets:
#	150
#	16060
#	27352
#	44842
#	56340
#	65252
#	84040
#	98445
#	114950
#	134450
#	146515
#	158872
#	169912
#	184382
#	216870
#	243447
#	273600
#	285522
#	297605
#	319782
#
# Disc length: 4510
#
# Revision: 2
# Processed by: cddbd v1.5.1PL0 Copyright (c) Steve Scherf et al.
# Submitted via: inCDius 1.1b8
# Normalized: r0:DSETVAR1,TDELIM( - );r1:TSWAP
#
DISCID=22119c14
DTITLE=Various Artist - The essential gospel sampler
DYEAR=1900
DGENRE=
TTITLE0=Golden Gate Quartet - Swing down chariot
TTITLE1=Marion Williams - What could I do
TTITLE2=Dixie Hummingbirds - When the gates swing open
TTITLE3=Staple Singers - Glory, glory hallelujah!
TTITLE4=Dixie Hummingbirds - Hide me in thy bosom
TTITLE5=Frances Steadman - Swing low, sweet chariot
TTITLE6=Alex Bradford - It's a highway to heaven
TTITLE7=Mahalia Jackson - My God is real
TTITLE8=Marion Williams - Somebody bigger than you or I
TTITLE9=Mahalia Jackson - Didn't it rain
TTITLE10=Landfordaires - Trouble of this world
TTITLE11=Paul Robeson - Git on board, little chillun/Li'l David
TTITLE12=Golden Gate Quartet - Hush!
TTITLE13=Mahalia Jackson - In the upper room
TTITLE14=Abyssinian Baptist Gospel Choir - Said I wasn't gonna tell nobody
TTITLE15=Mahalia Jackson - How I got over
TTITLE16=Staple Singers - What you gonna do?
TTITLE17=Staple Singers - Will the circle be unbroken
TTITLE18=Alex Bradford - If you see my saviour
TTITLE19=Dorothy Love Coates - Strange man
EXTD=Columbia Sony 1994\nCOL 475885 2
EXTT0=
EXTT1=
EXTT2=
EXTT3=
EXTT4=
EXTT5=
EXTT6=
EXTT7=
EXTT8=
EXTT9=
EXTT10=
EXTT11=
EXTT12=
EXTT13=
EXTT14=
EXTT15=
EXTT16=
EXTT17=
EXTT18=
EXTT19=
PLAYORDER=
